name analog
datacolumns 19
datarows 23
range 0.0 0.011
endheader
time	ground_force_vx	ground_force_vy	ground_force_vz	ground_force_px	ground_force_py	ground_force_pz	l_ground_force_vx	l_ground_force_vy	l_ground_force_vz	l_ground_force_px	l_ground_force_py	l_ground_force_pz	ground_torque_x	ground_torque_y	ground_torque_z	l_ground_torque_x	l_ground_torque_y	l_ground_torque_z
0.0	-0.0	-0.0	-0.0	7.363709449768066	25.58927154541016	-412.4837646484375	-4.653635501861572	-25.340993881225582	-471.48577880859375	-0.0	-0.0	-0.0	-0.0	-0.0	-0.0	134580.953125	-21624.966796875	-3820.344482421875
0.0005	-0.0	-0.0	-0.0	7.769878387451172	26.285625457763672	-409.1434326171875	-4.25811767578125	-25.212093353271484	-471.1002502441406	-0.0	-0.0	-0.0	-0.0	-0.0	-0.0	134513.1875	-21930.3828125	-3725.482421875
0.001	-0.0	-0.0	-0.0	7.607234001159668	25.71819305419922	-410.6201171875	-4.121138095855713	-24.94697952270508	-472.1479797363281	-0.0	-0.0	-0.0	-0.0	-0.0	-0.0	134914.09375	-22065.404296875	-3693.061279296875
0.0015	-0.0	-0.0	-0.0	7.607292175292969	25.89657020568848	-410.7150573730469	-4.298443794250488	-25.16364097595215	-471.703857421875	-0.0	-0.0	-0.0	-0.0	-0.0	-0.0	135075.5625	-22138.71484375	-3811.840576171875
0.002	-0.0	-0.0	-0.0	7.55845308303833	25.508380889892575	-411.8030395507813	-4.120940208435059	-25.3642635345459	-472.1160278320313	-0.0	-0.0	-0.0	-0.0	-0.0	-0.0	135026.9375	-21848.4765625	-3760.49951171875
0.0025	-0.0	-0.0	-0.0	7.939735412597656	26.034921646118164	-410.5892028808594	-4.6056976318359375	-25.292688369750977	-471.6081848144531	-0.0	-0.0	-0.0	-0.0	-0.0	-0.0	134812.828125	-22039.5234375	-3822.953857421875
0.003	-0.0	-0.0	-0.0	7.453586578369141	26.364578247070312	-410.3950805664063	-4.959115982055664	-25.589046478271484	-470.6563720703125	-0.0	-0.0	-0.0	-0.0	-0.0	-0.0	134924.40625	-22175.70703125	-3866.351806640625
0.0035	-0.0	-0.0	-0.0	7.751995086669922	26.308767318725582	-409.5912170410156	-4.952367305755615	-25.588972091674805	-471.41546630859375	-0.0	-0.0	-0.0	-0.0	-0.0	-0.0	134847.5	-22143.20703125	-3947.17138671875
0.004	-0.0	-0.0	-0.0	7.484128475189209	26.56085968017578	-408.1183471679688	-5.4511027336120605	-25.604108810424805	-470.4035949707031	-0.0	-0.0	-0.0	-0.0	-0.0	-0.0	134900.09375	-22070.75390625	-4076.37353515625
0.0045000000000000005	-0.0	-0.0	-0.0	7.493682861328125	26.39231300354004	-406.5101318359375	-5.677490234375	-25.583148956298828	-472.1125793457031	-0.0	-0.0	-0.0	-0.0	-0.0	-0.0	134588.1875	-22004.841796875	-4087.771484375
0.005	-0.0	-0.0	-0.0	7.236075401306152	26.456958770751957	-407.0200500488281	-5.53957986831665	-25.662273406982425	-469.95806884765625	-0.0	-0.0	-0.0	-0.0	-0.0	-0.0	134403.90625	-22295.81640625	-4141.9853515625
0.0055	-0.0	-0.0	-0.0	7.711613178253174	26.664634704589844	-407.0197143554688	-5.598634719848633	-25.82918739318848	-471.7232666015625	-0.0	-0.0	-0.0	-0.0	-0.0	-0.0	134381.1875	-22288.748046875	-4188.2275390625
0.006	-0.0	-0.0	-0.0	7.37550687789917	26.981624603271484	-404.6295166015625	-5.687579154968262	-25.52496719360352	-469.3966979980469	-0.0	-0.0	-0.0	-0.0	-0.0	-0.0	134476.515625	-22116.62109375	-4117.31103515625
0.006500000000000001	-0.0	-0.0	-0.0	6.879937648773193	27.006511688232425	-405.7612609863281	-5.908459186553955	-25.78993225097656	-469.59320068359375	-0.0	-0.0	-0.0	-0.0	-0.0	-0.0	134605.0	-22087.0078125	-4130.58056640625
0.007	-0.0	-0.0	-0.0	7.237014293670654	26.90642738342285	-405.60546875	-6.0323333740234375	-25.878253936767575	-471.103271484375	-0.0	-0.0	-0.0	-0.0	-0.0	-0.0	134611.0	-22095.98046875	-4108.052734375
0.0075	-0.0	-0.0	-0.0	7.187078475952148	26.585956573486328	-404.027587890625	-5.982517242431641	-26.044023513793945	-471.3117065429688	-0.0	-0.0	-0.0	-0.0	-0.0	-0.0	134789.46875	-22223.693359375	-4125.8427734375
0.008	-0.0	-0.0	-0.0	7.493682861328125	26.95623779296875	-405.80377197265625	-5.968571662902832	-25.42284202575684	-471.0055541992188	-0.0	-0.0	-0.0	-0.0	-0.0	-0.0	134726.109375	-22315.84765625	-4023.690185546875
0.0085	-0.0	-0.0	-0.0	7.239658355712891	26.229516983032227	-406.4642028808594	-5.627510070800781	-25.51376724243164	-470.7547302246094	-0.0	-0.0	-0.0	-0.0	-0.0	-0.0	134600.9375	-22089.763671875	-4083.645751953125
0.009000000000000001	-0.0	-0.0	-0.0	7.441644668579102	26.41973876953125	-407.1164245605469	-6.00726842880249	-25.348323822021484	-469.8062438964844	-0.0	-0.0	-0.0	-0.0	-0.0	-0.0	134298.21875	-22002.130859375	-4083.06591796875
0.0095	-0.0	-0.0	-0.0	7.658847332000732	26.64999008178711	-406.1091918945313	-5.766201019287109	-25.65161895751953	-468.85791015625	-0.0	-0.0	-0.0	-0.0	-0.0	-0.0	134192.25	-21990.197265625	-4053.3212890625
0.01	-0.0	-0.0	-0.0	7.902062892913818	26.54857444763184	-407.4205322265625	-5.486851692199707	-25.4366455078125	-467.91021728515625	-0.0	-0.0	-0.0	-0.0	-0.0	-0.0	134056.40625	-21974.80078125	-4045.097412109375
0.0105	-0.0	-0.0	-0.0	7.965187549591064	26.700847625732425	-407.4678649902344	-5.943622589111328	-25.588159561157227	-468.4139404296875	-0.0	-0.0	-0.0	-0.0	-0.0	-0.0	133622.4375	-21857.783203125	-4079.04443359375
0.011	-0.0	-0.0	-0.0	7.901392459869385	26.03874397277832	-407.0652770996094	-5.791162490844727	-25.499780654907227	-467.564453125	-0.0	-0.0	-0.0	-0.0	-0.0	-0.0	133361.953125	-21733.375	-3972.831787109375
